<svg width="22" height="22" viewBox="0 0 22 22" fill="none" xmlns="http://www.w3.org/2000/svg">
<path fill-rule="evenodd" clip-rule="evenodd" d="M5.07082 7.678C6.23782 5.316 7.99182 3.542 10.3648 2.386C10.6528 2.246 10.9978 2.304 11.2238 2.53L14.7588 6.066C14.9858 6.292 15.0438 6.637 14.9028 6.924C13.7478 9.298 11.9738 11.052 9.61182 12.218C9.32282 12.361 8.97582 12.304 8.74882 12.076L5.21382 8.541C4.98582 8.313 4.92882 7.967 5.07082 7.678ZM6.66382 7.87L9.41982 10.626C11.0878 9.701 12.3908 8.412 13.3108 6.739L10.5508 3.979C8.87782 4.898 7.58782 6.202 6.66382 7.87Z" fill="#262626"/>
<path fill-rule="evenodd" clip-rule="evenodd" d="M16.5268 6.066L15.8198 6.773C15.1368 7.456 14.0288 7.456 13.3448 6.773L10.5168 3.945C9.83281 3.261 9.83281 2.153 10.5168 1.47L11.2238 0.763C11.9068 0.079 13.0148 0.079 13.6988 0.763L16.5268 3.591C17.2108 4.274 17.2108 5.382 16.5268 6.066ZM15.4668 5.005C15.5638 4.908 15.5638 4.749 15.4668 4.652L12.6378 1.823C12.5408 1.726 12.3818 1.726 12.2848 1.823L11.5768 2.53C11.4798 2.628 11.4798 2.786 11.5778 2.884L14.4058 5.712C14.5038 5.81 14.6618 5.81 14.7588 5.712L15.4668 5.005Z" fill="#262626"/>
<path fill-rule="evenodd" clip-rule="evenodd" d="M10.9168 10.708C10.6378 10.402 10.6588 9.928 10.9638 9.648C11.2688 9.369 11.7438 9.39 12.0238 9.695L19.0528 17.373C19.1798 17.512 19.3578 17.592 19.5458 17.597C19.7328 17.601 19.9138 17.528 20.0468 17.395L20.0488 17.393C20.1808 17.261 20.2538 17.081 20.2498 16.895C20.2458 16.708 20.1668 16.531 20.0288 16.404L12.3758 9.338C12.0718 9.057 12.0528 8.583 12.3338 8.278C12.6138 7.974 13.0888 7.955 13.3928 8.236L21.0468 15.302C21.4838 15.706 21.7378 16.27 21.7498 16.865C21.7608 17.459 21.5298 18.033 21.1098 18.454L21.1078 18.456C20.6858 18.878 20.1088 19.109 19.5118 19.096C18.9158 19.083 18.3498 18.827 17.9468 18.386L10.9168 10.708Z" fill="#262626"/>
<path fill-rule="evenodd" clip-rule="evenodd" d="M9.45583 13.137L8.74883 13.844C8.06583 14.527 6.95783 14.527 6.27383 13.844L3.44583 11.016C2.76183 10.332 2.76183 9.224 3.44583 8.541L4.15283 7.834C4.83583 7.15 5.94383 7.15 6.62783 7.834L9.45583 10.662C10.1398 11.345 10.1398 12.453 9.45583 13.137ZM8.39583 12.076C8.49283 11.979 8.49283 11.82 8.39583 11.723L5.56683 8.894C5.46883 8.797 5.31083 8.797 5.21383 8.894L4.50583 9.601C4.40883 9.699 4.40883 9.857 4.50583 9.955L7.33483 12.783C7.43183 12.881 7.59083 12.881 7.68783 12.783L8.39583 12.076Z" fill="#262626"/>
<path fill-rule="evenodd" clip-rule="evenodd" d="M12.7498 19.5V20.5C12.7498 21.19 12.1898 21.75 11.4998 21.75H1.49982C0.809817 21.75 0.249817 21.19 0.249817 20.5V19.5C0.249817 18.534 1.03282 17.75 1.99982 17.75H10.9998C11.9668 17.75 12.7498 18.534 12.7498 19.5ZM1.74982 20.25H11.2498V19.5C11.2498 19.362 11.1378 19.25 10.9998 19.25H1.99982C1.86182 19.25 1.74982 19.362 1.74982 19.5V20.25Z" fill="#262626"/>
<path fill-rule="evenodd" clip-rule="evenodd" d="M11.7498 17V18.5C11.7498 18.914 11.4138 19.25 10.9998 19.25H1.99982C1.58582 19.25 1.24982 18.914 1.24982 18.5V17C1.24982 16.536 1.43382 16.091 1.76282 15.763C2.09082 15.434 2.53582 15.25 2.99982 15.25H9.99982C10.4638 15.25 10.9088 15.434 11.2368 15.763C11.5658 16.091 11.7498 16.536 11.7498 17ZM10.2498 17C10.2498 16.934 10.2238 16.87 10.1768 16.823C10.1298 16.776 10.0658 16.75 9.99982 16.75H2.99982C2.93382 16.75 2.86982 16.776 2.82282 16.823C2.77582 16.87 2.74982 16.934 2.74982 17V17.75H10.2498V17Z" fill="#262626"/>
</svg>
